<svg id="Layer_1" enable-background="new 0 0 510 510" viewBox="0 0 510 510" xmlns="http://www.w3.org/2000/svg"><g id="XMLID_1876_"><g id="XMLID_1921_"><path id="XMLID_1934_" d="m240 0v465c0 8.272-6.729 15-15 15-8.272 0-15-6.728-15-15 0-5.246 0-9.754 0-15-10.492 0-19.508 0-30 0v15c0 24.814 20.185 45 45 45 11.15 0 21.752-4.103 30-11.495l10-249.253-10-249.252c-5.246 0-9.754 0-15 0z" fill="#ffd930"/><path id="XMLID_1931_" d="m270 465c0-13.115 0-451.884 0-465-5.246 0-9.754 0-15 0v498.505c9.525-8.538 15-20.636 15-33.505z" fill="#ffb242"/></g><path id="XMLID_1918_" d="m74.688 104.688c-48.164 48.163-74.688 112.199-74.688 180.312v15h135l120-270c-68.113 0-132.148 26.524-180.312 74.688z" fill="#d50f55"/><path id="XMLID_1911_" d="m255 30 120 270h135c0-5.246 0-9.754 0-15 0-142.088-115.199-255-255-255z" fill="#c5145b"/><path id="XMLID_1890_" d="m135 270v30h120l15-120-15-150c-66.274 0-120 107.452-120 240z" fill="#fc445f"/><path id="XMLID_1878_" d="m351.497 127.311c-21.86-59.039-56.944-97.311-96.497-97.311v270h120v-15c-.545-7.353 4.304-82.596-23.503-157.689z" fill="#d50f55"/></g></svg>